<svg id="Layer_1" xmlns="http://www.w3.org/2000/svg" viewBox="0 0 278.61 37.42">
  <defs>
    <style>
      .sram-cls-1{fill:#1f1300}.sram-cls-2{fill:#fff}
    </style>
  </defs>
  <g id="SRAM_text">
    <path class="sram-cls-1" d="M69.32,23.76a5.62,5.62,0,0,1,5.62,5.62V33a5.62,5.62,0,0,1-5.62,5.61H61A5.62,5.62,0,0,1,55.33,33V30.75a7,7,0,0,0-7-7H8.5a7,7,0,0,1-7-7V8.14a7,7,0,0,1,7-7H48.35a7,7,0,0,1,7,7v8.64a7,7,0,0,0,7,7Z" transform="translate(-1.51 -1.16)"/>
    <path class="sram-cls-2" d="M13.55,14.53c0-.52-.66-.74-1.51-1L10.35,13a2.86,2.86,0,0,1-2.3-2.73c0-1.82,1.63-3.05,3.83-3.05,1.71,0,3.72.59,3.72,1.68,0,.67-.33,1.08-.95,1.08a2.84,2.84,0,0,1-.93-.21,4.87,4.87,0,0,0-1.84-.38c-.65,0-1.45.26-1.45.77s.36.67,1.15.91l1.9.58a3,3,0,0,1,2.45,2.92c0,1.88-1.77,3.09-4,3.09-1.9,0-4.12-.59-4.12-1.68a1,1,0,0,1,1.07-1.09,3,3,0,0,1,1,.22,5.87,5.87,0,0,0,2,.37C12.67,15.51,13.55,15.16,13.55,14.53Z" transform="translate(-1.51 -1.16)"/>
    <path class="sram-cls-2" d="M25.06,8.46A1,1,0,0,1,26.22,7.3a1,1,0,0,1,1.17,1.16v4.43a4.48,4.48,0,0,1-4.61,4.8,4.48,4.48,0,0,1-4.6-4.8V8.46A1,1,0,0,1,19.34,7.3a1,1,0,0,1,1.17,1.16v4.43a2.29,2.29,0,1,0,4.55,0Z" transform="translate(-1.51 -1.16)"/>
    <path class="sram-cls-2" d="M34.57,14.42H32.44v2.06a1.16,1.16,0,1,1-2.32,0V8.55a1,1,0,0,1,1.15-1.16h3.34A3.51,3.51,0,0,1,38.38,11a3,3,0,0,1-1.58,2.79l1.07,2.15a1.34,1.34,0,0,1,.15.62c0,.67-.77,1.11-1.34,1.11a1.05,1.05,0,0,1-1-.74ZM32.44,9.61v2.7h2c.89,0,1.59-.4,1.59-1.34s-.7-1.36-1.59-1.36Z" transform="translate(-1.51 -1.16)"/>
    <path class="sram-cls-2" d="M43.22,14v2.5a1.16,1.16,0,1,1-2.31,0V8.55a1,1,0,0,1,1.16-1.16h5.56a1,1,0,0,1,1.1,1.11,1,1,0,0,1-1.1,1.11H43.22v2.15H46a1,1,0,0,1,1.1,1.12A1,1,0,0,1,46,14Z" transform="translate(-1.51 -1.16)"/>
    <path class="sram-cls-1" d="M84.74,32.68H83.07V34.3a.92.92,0,0,1-1.83,0V28.05a.81.81,0,0,1,.91-.91h2.62a2.77,2.77,0,0,1,3,2.81,2.39,2.39,0,0,1-1.25,2.21l.85,1.69a1.12,1.12,0,0,1,.11.49c0,.53-.6.87-1.06.87a.82.82,0,0,1-.75-.59Zm-1.67-3.8V31h1.55c.69,0,1.24-.31,1.24-1.06s-.55-1.07-1.24-1.07Z" transform="translate(-1.51 -1.16)"/>
    <path class="sram-cls-1" d="M94.31,27.14a.87.87,0,0,1,0,1.74H90.74v1.36H93A.87.87,0,0,1,93,32H90.74v1.4h3.57a.87.87,0,0,1,0,1.74H89.82a.81.81,0,0,1-.91-.91V28.05a.81.81,0,0,1,.91-.91Z" transform="translate(-1.51 -1.16)"/>
    <path class="sram-cls-1" d="M100.82,32.76c0-.41-.52-.58-1.19-.78l-1.33-.41a2.23,2.23,0,0,1-1.81-2.15c0-1.42,1.28-2.4,3-2.4,1.35,0,2.94.47,2.94,1.32,0,.53-.27.86-.76.86A2.21,2.21,0,0,1,101,29a4.06,4.06,0,0,0-1.45-.29c-.5,0-1.14.2-1.14.6s.29.53.91.72l1.49.46a2.31,2.31,0,0,1,1.93,2.29c0,1.49-1.39,2.44-3.17,2.44-1.49,0-3.24-.47-3.24-1.32a.78.78,0,0,1,.84-.86,2.45,2.45,0,0,1,.82.17,4.4,4.4,0,0,0,1.58.29C100.13,33.53,100.82,33.26,100.82,32.76Z" transform="translate(-1.51 -1.16)"/>
    <path class="sram-cls-1" d="M109.2,27.14a.87.87,0,0,1,0,1.74h-3.57v1.36h2.22a.87.87,0,1,1,0,1.74h-2.22v1.4h3.57a.87.87,0,0,1,0,1.74h-4.49a.81.81,0,0,1-.91-.91V28.05a.81.81,0,0,1,.91-.91Z" transform="translate(-1.51 -1.16)"/>
    <path class="sram-cls-1" d="M118.51,33.9a1.17,1.17,0,0,1,.13.51,1,1,0,0,1-1,.84.85.85,0,0,1-.76-.57l-.34-.73h-3.42l-.34.73a.85.85,0,0,1-.76.57,1,1,0,0,1-1-.84,1.17,1.17,0,0,1,.13-.51L114,27.69a.89.89,0,0,1,1.7,0Zm-4.85-1.53h2.28l-1.13-2.55Z" transform="translate(-1.51 -1.16)"/>
    <path class="sram-cls-1" d="M123,32.68h-1.68V34.3a.92.92,0,0,1-1.83,0V28.05a.81.81,0,0,1,.91-.91H123A2.76,2.76,0,0,1,126,30a2.37,2.37,0,0,1-1.25,2.21l.85,1.69a1,1,0,0,1,.12.49c0,.53-.61.87-1.06.87a.81.81,0,0,1-.75-.59Zm-1.68-3.8V31h1.55c.7,0,1.25-.31,1.25-1.06s-.55-1.07-1.25-1.07Z" transform="translate(-1.51 -1.16)"/>
    <path class="sram-cls-1" d="M131.25,33.45a2.65,2.65,0,0,0,1.13-.26,1.65,1.65,0,0,1,.62-.14c.51,0,.79.45.79,1,0,.8-1.44,1.23-2.43,1.23a4.12,4.12,0,1,1,0-8.23c1,0,2.43.44,2.43,1.23,0,.52-.28,1-.79,1a1.87,1.87,0,0,1-.62-.14,2.65,2.65,0,0,0-1.13-.26,2.32,2.32,0,0,0,0,4.63Z" transform="translate(-1.51 -1.16)"/>
    <path class="sram-cls-1" d="M140.66,28a.92.92,0,0,1,1.83,0V34.3a.92.92,0,0,1-1.83,0V32h-3.77V34.3a.92.92,0,0,1-1.83,0V28a.92.92,0,0,1,1.83,0v2.27h3.77Z" transform="translate(-1.51 -1.16)"/>
    <path class="sram-cls-1" d="M154.35,33.9a1.17,1.17,0,0,1,.13.51,1,1,0,0,1-1,.84.85.85,0,0,1-.76-.57l-.34-.73h-3.42l-.34.73a.85.85,0,0,1-.76.57,1,1,0,0,1-1-.84,1.17,1.17,0,0,1,.13-.51l2.86-6.21a.89.89,0,0,1,1.7,0Zm-4.85-1.53h2.28l-1.13-2.55Z" transform="translate(-1.51 -1.16)"/>
    <path class="sram-cls-1" d="M159.05,33.45a2.65,2.65,0,0,0,1.13-.26,1.65,1.65,0,0,1,.62-.14c.5,0,.79.45.79,1,0,.8-1.44,1.23-2.44,1.23a4.12,4.12,0,1,1,0-8.23c1,0,2.44.44,2.44,1.23,0,.52-.29,1-.79,1a1.87,1.87,0,0,1-.62-.14,2.65,2.65,0,0,0-1.13-.26,2.32,2.32,0,0,0,0,4.63Z" transform="translate(-1.51 -1.16)"/>
    <path class="sram-cls-1" d="M166.53,33.45a2.65,2.65,0,0,0,1.13-.26,1.69,1.69,0,0,1,.62-.14c.51,0,.79.45.79,1,0,.8-1.44,1.23-2.43,1.23a4.12,4.12,0,1,1,0-8.23c1,0,2.43.44,2.43,1.23,0,.52-.28,1-.79,1a1.92,1.92,0,0,1-.62-.14,2.65,2.65,0,0,0-1.13-.26,2.32,2.32,0,0,0,0,4.63Z" transform="translate(-1.51 -1.16)"/>
    <path class="sram-cls-1" d="M175.74,27.14a.87.87,0,1,1,0,1.74h-3.57v1.36h2.22a.87.87,0,1,1,0,1.74h-2.22v1.4h3.57a.87.87,0,1,1,0,1.74h-4.49a.81.81,0,0,1-.91-.91V28.05a.81.81,0,0,1,.91-.91Z" transform="translate(-1.51 -1.16)"/>
    <path class="sram-cls-1" d="M182,32.76c0-.41-.52-.58-1.18-.78l-1.34-.41a2.24,2.24,0,0,1-1.81-2.15c0-1.42,1.28-2.4,3-2.4,1.34,0,2.93.47,2.93,1.32,0,.53-.26.86-.75.86a2.15,2.15,0,0,1-.73-.17,4.11,4.11,0,0,0-1.45-.29c-.51,0-1.14.2-1.14.6s.28.53.91.72l1.49.46a2.31,2.31,0,0,1,1.93,2.29c0,1.49-1.39,2.44-3.17,2.44-1.49,0-3.24-.47-3.24-1.32a.78.78,0,0,1,.84-.86,2.4,2.4,0,0,1,.81.17,4.46,4.46,0,0,0,1.59.29C181.34,33.53,182,33.26,182,32.76Z" transform="translate(-1.51 -1.16)"/>
    <path class="sram-cls-1" d="M189.33,32.76c0-.41-.51-.58-1.18-.78l-1.34-.41A2.24,2.24,0,0,1,185,29.42c0-1.42,1.28-2.4,3-2.4,1.35,0,2.93.47,2.93,1.32,0,.53-.26.86-.75.86a2.21,2.21,0,0,1-.73-.17,4.06,4.06,0,0,0-1.45-.29c-.51,0-1.14.2-1.14.6s.28.53.91.72l1.49.46a2.31,2.31,0,0,1,1.93,2.29c0,1.49-1.39,2.44-3.17,2.44-1.49,0-3.24-.47-3.24-1.32a.78.78,0,0,1,.84-.86,2.4,2.4,0,0,1,.81.17,4.51,4.51,0,0,0,1.59.29C188.65,33.53,189.33,33.26,189.33,32.76Z" transform="translate(-1.51 -1.16)"/>
    <path class="sram-cls-1" d="M202.33,27.75c.34-.46.66-.69,1-.69.56,0,.93.26.93,1V34.3a.92.92,0,0,1-1.83,0V30.47l-1.35,1.79c-.36.48-.64.7-1,.7s-.58-.19-1-.7l-1.34-1.79V34.3a.92.92,0,0,1-1.83,0V28c0-.72.37-1,.94-1,.35,0,.67.24,1,.69l2.18,2.93Z" transform="translate(-1.51 -1.16)"/>
    <path class="sram-cls-1" d="M213.09,33.9a1.17,1.17,0,0,1,.13.51,1,1,0,0,1-1,.84.85.85,0,0,1-.76-.57l-.34-.73h-3.42l-.34.73a.85.85,0,0,1-.76.57,1,1,0,0,1-1-.84,1.17,1.17,0,0,1,.13-.51l2.86-6.21a.89.89,0,0,1,1.7,0Zm-4.85-1.53h2.28l-1.13-2.55Z" transform="translate(-1.51 -1.16)"/>
    <path class="sram-cls-1" d="M219.67,28a.92.92,0,0,1,1.84,0V34.3a.82.82,0,0,1-.93.91,1.08,1.08,0,0,1-.83-.42l-3.65-4.46v4a.92.92,0,0,1-1.83,0V28a.81.81,0,0,1,.91-.91,1.11,1.11,0,0,1,.9.49L219.67,32Z" transform="translate(-1.51 -1.16)"/>
    <path class="sram-cls-1" d="M230.32,33.9a1.32,1.32,0,0,1,.13.51,1,1,0,0,1-1,.84.85.85,0,0,1-.76-.57l-.34-.73H224.9l-.34.73a.86.86,0,0,1-.76.57,1,1,0,0,1-1-.84,1.17,1.17,0,0,1,.13-.51l2.86-6.21a.9.9,0,0,1,.85-.63.92.92,0,0,1,.85.63Zm-4.85-1.53h2.28l-1.14-2.55Z" transform="translate(-1.51 -1.16)"/>
    <path class="sram-cls-1" d="M235.23,35.25a4.12,4.12,0,1,1,0-8.23c1.42,0,3,.49,3,1.39,0,.56-.28.9-.8.9a1.88,1.88,0,0,1-.72-.19,3.7,3.7,0,0,0-1.44-.3,2.23,2.23,0,0,0-2.43,2.31,2.3,2.3,0,0,0,2.43,2.34,3.58,3.58,0,0,0,1.6-.32v-1h-1.3a.78.78,0,0,1-.9-.86c0-.58.31-.86.9-.86h2.21a.82.82,0,0,1,.92.92v2.08a1.16,1.16,0,0,1-.66,1.11A5.38,5.38,0,0,1,235.23,35.25Z" transform="translate(-1.51 -1.16)"/>
    <path class="sram-cls-1" d="M245.59,27.14a.87.87,0,1,1,0,1.74H242v1.36h2.22a.87.87,0,1,1,0,1.74H242v1.4h3.57a.87.87,0,1,1,0,1.74H241.1a.81.81,0,0,1-.91-.91V28.05a.81.81,0,0,1,.91-.91Z" transform="translate(-1.51 -1.16)"/>
    <path class="sram-cls-1" d="M254.11,27.75c.34-.46.65-.69,1-.69.56,0,.94.26.94,1V34.3a.92.92,0,0,1-1.84,0V30.47l-1.34,1.79c-.36.48-.65.7-1,.7s-.58-.19-1-.7l-1.34-1.79V34.3a.92.92,0,0,1-1.84,0V28c0-.72.37-1,.95-1,.35,0,.66.24,1,.69l2.18,2.93Z" transform="translate(-1.51 -1.16)"/>
    <path class="sram-cls-1" d="M263.14,27.14a.87.87,0,1,1,0,1.74h-3.57v1.36h2.23a.87.87,0,1,1,0,1.74h-2.23v1.4h3.57a.87.87,0,1,1,0,1.74h-4.49a.81.81,0,0,1-.91-.91V28.05a.81.81,0,0,1,.91-.91Z" transform="translate(-1.51 -1.16)"/>
    <path class="sram-cls-1" d="M270.73,28a.92.92,0,0,1,1.83,0V34.3a.82.82,0,0,1-.92.91,1.06,1.06,0,0,1-.83-.42l-3.65-4.46v4a.92.92,0,0,1-1.83,0V28a.81.81,0,0,1,.91-.91,1.12,1.12,0,0,1,.9.49L270.73,32Z" transform="translate(-1.51 -1.16)"/>
    <path class="sram-cls-1" d="M275.9,34.3V28.88h-1.51a.87.87,0,1,1,0-1.74h4.87a.87.87,0,1,1,0,1.74h-1.53V34.3a.92.92,0,0,1-1.83,0Z" transform="translate(-1.51 -1.16)"/>
  </g>
</svg>
