<?xml version="1.0" encoding="utf-8"?>
<!-- Generator: Adobe Illustrator 24.1.2, SVG Export Plug-In . SVG Version: 6.00 Build 0)  -->
<svg version="1.1" baseProfile="basic"
	 id="svg39" xmlns:cc="http://creativecommons.org/ns#" xmlns:dc="http://purl.org/dc/elements/1.1/" xmlns:rdf="http://www.w3.org/1999/02/22-rdf-syntax-ns#" xmlns:svg="http://www.w3.org/2000/svg"
	 xmlns="http://www.w3.org/2000/svg" xmlns:xlink="http://www.w3.org/1999/xlink" x="0px" y="0px" viewBox="0 0 73.42 37.42"
	 xml:space="preserve">
<style type="text/css">
	.st0{fill:#20180E;}
	.st1{fill:#FFFFFF;}
</style>
<g id="surface16581">
	<path id="path28" class="st0" d="M67.809,22.609c3.102,0,5.613,2.516,5.613,5.613v3.586c0,3.102-2.512,5.613-5.613,5.613H59.43
		c-3.098,0-5.609-2.512-5.609-5.613v-2.215c0-3.855-3.129-6.984-6.984-6.984H6.984C3.129,22.609,0,19.484,0,15.625V6.988
		c0-3.855,3.129-6.984,6.984-6.984h39.852c3.855,0,6.984,3.129,6.984,6.984v8.637c0,3.859,3.125,6.984,6.984,6.984H67.809"/>
	<path id="path30" class="st1" d="M12.031,13.379c0-0.527-0.656-0.742-1.504-0.996l-1.695-0.512
		c-1.223-0.363-2.297-1.223-2.297-2.727c0-1.816,1.625-3.051,3.832-3.051c1.707,0,3.723,0.59,3.723,1.68
		c0,0.672-0.336,1.086-0.957,1.086c-0.32,0-0.602-0.105-0.926-0.215c-0.473-0.172-1.047-0.375-1.84-0.375
		c-0.648,0-1.453,0.254-1.453,0.766c0,0.457,0.363,0.672,1.156,0.914l1.895,0.578c1.277,0.391,2.445,1.156,2.445,2.918
		c0,1.879-1.758,3.09-4.016,3.09c-1.898,0-4.113-0.59-4.113-1.68c0-0.672,0.387-1.09,1.062-1.09c0.348,0,0.668,0.094,1.031,0.215
		c0.512,0.176,1.117,0.379,2.02,0.379C11.16,14.359,12.031,14.008,12.031,13.379"/>
	<path id="path32" class="st1" d="M23.551,7.301c0-0.766,0.402-1.152,1.156-1.152c0.766,0,1.168,0.387,1.168,1.152v4.438
		c0,2.914-1.949,4.797-4.609,4.797c-2.648,0-4.598-1.883-4.598-4.797V7.301c0-0.766,0.406-1.152,1.156-1.152
		c0.766,0,1.168,0.387,1.168,1.152v4.438c0,1.57,0.957,2.512,2.273,2.512c1.328,0,2.285-0.941,2.285-2.512V7.301"/>
	<path id="path34" class="st1" d="M30.93,8.457v2.703h1.961c0.887,0,1.586-0.402,1.586-1.344c0-0.957-0.699-1.359-1.586-1.359H30.93
		z M33.051,13.27H30.93v2.055c0,0.77-0.406,1.156-1.172,1.156c-0.75,0-1.156-0.387-1.156-1.156v-7.93
		c0-0.766,0.406-1.156,1.156-1.156h3.336c2.23,0,3.773,1.469,3.773,3.578c0,1.289-0.59,2.27-1.586,2.793l1.078,2.152
		c0.105,0.215,0.145,0.414,0.145,0.617c0,0.672-0.766,1.102-1.344,1.102c-0.43,0-0.738-0.254-0.953-0.738L33.051,13.27"/>
	<path id="path36" class="st1" d="M41.707,12.828v2.496c0,0.77-0.391,1.156-1.156,1.156c-0.754,0-1.156-0.387-1.156-1.156v-7.93
		c0-0.766,0.402-1.156,1.156-1.156h5.566c0.738,0,1.102,0.379,1.102,1.105c0,0.738-0.363,1.113-1.102,1.113h-4.41v2.152h2.754
		c0.742,0,1.102,0.375,1.102,1.113c0,0.727-0.359,1.105-1.102,1.105H41.707"/>
</g>
</svg>
